<mxfile host="app.diagrams.net" modified="2020-11-10T13:16:48.587Z" agent="5.0 (X11; Linux x86_64) AppleWebKit/537.36 (KHTML, like Gecko) Chrome/84.0.4147.135 Safari/537.36" etag="A8Fec5pnflYMYXs4LNHF" version="13.9.3" type="github">
  <diagram id="tPaPWrY2Wg2dMlKEZ2_l" name="Page-1">
    <mxGraphModel dx="955" dy="450" grid="0" gridSize="10" guides="1" tooltips="1" connect="1" arrows="1" fold="1" page="1" pageScale="1" pageWidth="1169" pageHeight="1654" math="0" shadow="0">
      <root>
        <mxCell id="0" />
        <mxCell id="1" parent="0" />
        <mxCell id="hHzIFD-uLqwuajFkAGgk-1" value="&lt;font style=&quot;font-size: 24px&quot;&gt;3&lt;br&gt;&lt;/font&gt;" style="ellipse;whiteSpace=wrap;html=1;aspect=fixed;fillColor=#CCFFCC;shadow=0;" parent="1" vertex="1">
          <mxGeometry x="130" y="30" width="80" height="80" as="geometry" />
        </mxCell>
        <mxCell id="hHzIFD-uLqwuajFkAGgk-2" value="&lt;font style=&quot;font-size: 24px&quot;&gt;5&lt;/font&gt;" style="ellipse;whiteSpace=wrap;html=1;aspect=fixed;fillColor=#dddddd;" parent="1" vertex="1">
          <mxGeometry x="40" y="130" width="80" height="80" as="geometry" />
        </mxCell>
        <mxCell id="hHzIFD-uLqwuajFkAGgk-3" value="&lt;font style=&quot;font-size: 24px&quot;&gt;1&lt;/font&gt;" style="ellipse;whiteSpace=wrap;html=1;aspect=fixed;fillColor=#dddddd;" parent="1" vertex="1">
          <mxGeometry x="230" y="130" width="80" height="80" as="geometry" />
        </mxCell>
        <mxCell id="hHzIFD-uLqwuajFkAGgk-4" value="&lt;font style=&quot;font-size: 24px&quot;&gt;2&lt;/font&gt;" style="ellipse;whiteSpace=wrap;html=1;aspect=fixed;fillColor=#dddddd;" parent="1" vertex="1">
          <mxGeometry x="40" y="270" width="80" height="80" as="geometry" />
        </mxCell>
        <mxCell id="hHzIFD-uLqwuajFkAGgk-5" value="&lt;font style=&quot;font-size: 24px&quot;&gt;4&lt;/font&gt;" style="ellipse;whiteSpace=wrap;html=1;aspect=fixed;fillColor=#FFB366;" parent="1" vertex="1">
          <mxGeometry x="230" y="270" width="80" height="80" as="geometry" />
        </mxCell>
        <mxCell id="hHzIFD-uLqwuajFkAGgk-6" value="&lt;font style=&quot;font-size: 24px&quot;&gt;0&lt;/font&gt;" style="ellipse;whiteSpace=wrap;html=1;aspect=fixed;fillColor=#CCCCFF;" parent="1" vertex="1">
          <mxGeometry x="130" y="380" width="80" height="80" as="geometry" />
        </mxCell>
        <mxCell id="hHzIFD-uLqwuajFkAGgk-8" value="" style="endArrow=none;html=1;entryX=0;entryY=1;entryDx=0;entryDy=0;exitX=1;exitY=0;exitDx=0;exitDy=0;" parent="1" source="hHzIFD-uLqwuajFkAGgk-2" target="hHzIFD-uLqwuajFkAGgk-1" edge="1">
          <mxGeometry width="50" height="50" relative="1" as="geometry">
            <mxPoint x="440" y="270" as="sourcePoint" />
            <mxPoint x="490" y="220" as="targetPoint" />
          </mxGeometry>
        </mxCell>
        <mxCell id="hHzIFD-uLqwuajFkAGgk-9" value="" style="endArrow=none;html=1;entryX=1;entryY=1;entryDx=0;entryDy=0;exitX=0;exitY=0;exitDx=0;exitDy=0;" parent="1" source="hHzIFD-uLqwuajFkAGgk-3" target="hHzIFD-uLqwuajFkAGgk-1" edge="1">
          <mxGeometry width="50" height="50" relative="1" as="geometry">
            <mxPoint x="118.28427124746213" y="151.71572875253787" as="sourcePoint" />
            <mxPoint x="151.71572875253787" y="108.28427124746213" as="targetPoint" />
          </mxGeometry>
        </mxCell>
        <mxCell id="hHzIFD-uLqwuajFkAGgk-10" value="" style="endArrow=none;html=1;entryX=0.5;entryY=1;entryDx=0;entryDy=0;exitX=0.5;exitY=0;exitDx=0;exitDy=0;" parent="1" source="hHzIFD-uLqwuajFkAGgk-4" target="hHzIFD-uLqwuajFkAGgk-2" edge="1">
          <mxGeometry width="50" height="50" relative="1" as="geometry">
            <mxPoint x="128.28427124746213" y="161.71572875253787" as="sourcePoint" />
            <mxPoint x="161.71572875253787" y="118.28427124746213" as="targetPoint" />
          </mxGeometry>
        </mxCell>
        <mxCell id="hHzIFD-uLqwuajFkAGgk-11" value="" style="endArrow=none;html=1;entryX=0.5;entryY=1;entryDx=0;entryDy=0;exitX=0.5;exitY=0;exitDx=0;exitDy=0;" parent="1" source="hHzIFD-uLqwuajFkAGgk-5" target="hHzIFD-uLqwuajFkAGgk-3" edge="1">
          <mxGeometry width="50" height="50" relative="1" as="geometry">
            <mxPoint x="138.28427124746213" y="171.71572875253787" as="sourcePoint" />
            <mxPoint x="171.71572875253787" y="128.28427124746213" as="targetPoint" />
          </mxGeometry>
        </mxCell>
        <mxCell id="hHzIFD-uLqwuajFkAGgk-12" value="" style="endArrow=none;html=1;entryX=0;entryY=1;entryDx=0;entryDy=0;exitX=1;exitY=0;exitDx=0;exitDy=0;" parent="1" source="hHzIFD-uLqwuajFkAGgk-6" target="hHzIFD-uLqwuajFkAGgk-5" edge="1">
          <mxGeometry width="50" height="50" relative="1" as="geometry">
            <mxPoint x="148.28427124746213" y="181.71572875253787" as="sourcePoint" />
            <mxPoint x="181.71572875253787" y="138.28427124746213" as="targetPoint" />
          </mxGeometry>
        </mxCell>
        <mxCell id="hHzIFD-uLqwuajFkAGgk-13" value="" style="endArrow=none;html=1;entryX=0;entryY=0;entryDx=0;entryDy=0;exitX=1;exitY=1;exitDx=0;exitDy=0;" parent="1" source="hHzIFD-uLqwuajFkAGgk-4" target="hHzIFD-uLqwuajFkAGgk-6" edge="1">
          <mxGeometry width="50" height="50" relative="1" as="geometry">
            <mxPoint x="158.28427124746213" y="191.71572875253787" as="sourcePoint" />
            <mxPoint x="191.71572875253787" y="148.28427124746213" as="targetPoint" />
          </mxGeometry>
        </mxCell>
        <mxCell id="hHzIFD-uLqwuajFkAGgk-17" value="" style="endArrow=none;html=1;entryX=1;entryY=1;entryDx=0;entryDy=0;exitX=0;exitY=0;exitDx=0;exitDy=0;" parent="1" source="hHzIFD-uLqwuajFkAGgk-5" target="hHzIFD-uLqwuajFkAGgk-2" edge="1">
          <mxGeometry width="50" height="50" relative="1" as="geometry">
            <mxPoint x="440" y="270" as="sourcePoint" />
            <mxPoint x="490" y="220" as="targetPoint" />
          </mxGeometry>
        </mxCell>
        <mxCell id="hHzIFD-uLqwuajFkAGgk-18" value="&lt;font style=&quot;font-size: 24px&quot;&gt;&lt;i&gt;v&lt;/i&gt;&lt;/font&gt;" style="text;html=1;strokeColor=none;fillColor=none;align=center;verticalAlign=middle;whiteSpace=wrap;rounded=0;shadow=0;" parent="1" vertex="1">
          <mxGeometry x="310" y="306" width="40" height="20" as="geometry" />
        </mxCell>
        <mxCell id="hHzIFD-uLqwuajFkAGgk-19" value="&lt;font style=&quot;font-size: 24px&quot;&gt;&lt;i&gt;t&lt;/i&gt;&lt;/font&gt;" style="text;html=1;strokeColor=none;fillColor=none;align=center;verticalAlign=middle;whiteSpace=wrap;rounded=0;shadow=0;" parent="1" vertex="1">
          <mxGeometry x="214" y="60" width="40" height="20" as="geometry" />
        </mxCell>
        <mxCell id="hHzIFD-uLqwuajFkAGgk-20" value="&lt;font style=&quot;font-size: 24px&quot;&gt;&lt;i&gt;s&lt;/i&gt;&lt;/font&gt;" style="text;html=1;strokeColor=none;fillColor=none;align=center;verticalAlign=middle;whiteSpace=wrap;rounded=0;shadow=0;" parent="1" vertex="1">
          <mxGeometry x="210" y="414" width="40" height="20" as="geometry" />
        </mxCell>
      </root>
    </mxGraphModel>
  </diagram>
</mxfile>
